<svg width="113" height="24" viewBox="0 0 113 24" fill="none" xmlns="http://www.w3.org/2000/svg">
<path d="M3.93474 2L0 6.38133V24H19.2795L23 19.6V2H3.93474Z" fill="url(#paint0_linear_349_41)"/>
<path d="M30.5 6.2V20H28.74V6.2H30.5ZM37.08 11.86V13.38H30.34V11.86H37.08ZM38.62 6.2V20H36.86V6.2H38.62ZM46.0394 10.02C47.1594 10.02 48.0527 10.1867 48.7194 10.52C49.3994 10.8533 49.886 11.4 50.1794 12.16C50.4727 12.9067 50.6194 13.9 50.6194 15.14C50.6194 16.38 50.4727 17.38 50.1794 18.14C49.886 18.8867 49.3994 19.4267 48.7194 19.76C48.0527 20.0933 47.1594 20.26 46.0394 20.26C44.9327 20.26 44.0394 20.0933 43.3594 19.76C42.6927 19.4267 42.206 18.8867 41.8994 18.14C41.606 17.38 41.4594 16.38 41.4594 15.14C41.4594 13.9 41.606 12.9067 41.8994 12.16C42.206 11.4 42.6927 10.8533 43.3594 10.52C44.0394 10.1867 44.9327 10.02 46.0394 10.02ZM46.0394 11.46C45.3327 11.46 44.7727 11.5733 44.3594 11.8C43.9594 12.0133 43.6727 12.3867 43.4994 12.92C43.326 13.4533 43.2394 14.1933 43.2394 15.14C43.2394 16.0867 43.326 16.8267 43.4994 17.36C43.6727 17.8933 43.9594 18.2733 44.3594 18.5C44.7727 18.7133 45.3327 18.82 46.0394 18.82C46.746 18.82 47.306 18.7133 47.7194 18.5C48.1327 18.2733 48.426 17.8933 48.5994 17.36C48.7727 16.8267 48.8594 16.0867 48.8594 15.14C48.8594 14.1933 48.7727 13.4533 48.5994 12.92C48.426 12.3867 48.1327 12.0133 47.7194 11.8C47.306 11.5733 46.746 11.46 46.0394 11.46ZM55.0066 6L54.9866 17.32C54.9866 17.7467 55.0999 18.0733 55.3266 18.3C55.5666 18.5133 55.8999 18.62 56.3266 18.62H57.2666L57.4666 19.92C57.3466 19.9733 57.1732 20.02 56.9466 20.06C56.7332 20.1 56.5066 20.1267 56.2666 20.14C56.0399 20.1667 55.8466 20.18 55.6866 20.18C54.9666 20.18 54.3866 19.9667 53.9466 19.54C53.5199 19.1133 53.3066 18.5 53.3066 17.7V6H55.0066ZM63.3441 10.02C64.4641 10.02 65.3574 10.1867 66.0241 10.52C66.7041 10.8533 67.1907 11.4 67.4841 12.16C67.7774 12.9067 67.9241 13.9 67.9241 15.14C67.9241 16.38 67.7774 17.38 67.4841 18.14C67.1907 18.8867 66.7041 19.4267 66.0241 19.76C65.3574 20.0933 64.4641 20.26 63.3441 20.26C62.2374 20.26 61.3441 20.0933 60.6641 19.76C59.9974 19.4267 59.5107 18.8867 59.2041 18.14C58.9107 17.38 58.7641 16.38 58.7641 15.14C58.7641 13.9 58.9107 12.9067 59.2041 12.16C59.5107 11.4 59.9974 10.8533 60.6641 10.52C61.3441 10.1867 62.2374 10.02 63.3441 10.02ZM63.3441 11.46C62.6374 11.46 62.0774 11.5733 61.6641 11.8C61.2641 12.0133 60.9774 12.3867 60.8041 12.92C60.6307 13.4533 60.5441 14.1933 60.5441 15.14C60.5441 16.0867 60.6307 16.8267 60.8041 17.36C60.9774 17.8933 61.2641 18.2733 61.6641 18.5C62.0774 18.7133 62.6374 18.82 63.3441 18.82C64.0507 18.82 64.6107 18.7133 65.0241 18.5C65.4374 18.2733 65.7307 17.8933 65.9041 17.36C66.0774 16.8267 66.1641 16.0867 66.1641 15.14C66.1641 14.1933 66.0774 13.4533 65.9041 12.92C65.7307 12.3867 65.4374 12.0133 65.0241 11.8C64.6107 11.5733 64.0507 11.46 63.3441 11.46ZM76.2717 11.64L78.1717 11.66L71.8917 18.64L69.9917 18.62L76.2717 11.64ZM78.2317 18.62V20H69.9917V18.62H78.2317ZM78.1717 10.26V11.66H70.0517V10.26H78.1717ZM84.8675 10.02C85.9875 10.02 86.8808 10.1867 87.5475 10.52C88.2275 10.8533 88.7142 11.4 89.0075 12.16C89.3008 12.9067 89.4475 13.9 89.4475 15.14C89.4475 16.38 89.3008 17.38 89.0075 18.14C88.7142 18.8867 88.2275 19.4267 87.5475 19.76C86.8808 20.0933 85.9875 20.26 84.8675 20.26C83.7608 20.26 82.8675 20.0933 82.1875 19.76C81.5208 19.4267 81.0342 18.8867 80.7275 18.14C80.4342 17.38 80.2875 16.38 80.2875 15.14C80.2875 13.9 80.4342 12.9067 80.7275 12.16C81.0342 11.4 81.5208 10.8533 82.1875 10.52C82.8675 10.1867 83.7608 10.02 84.8675 10.02ZM84.8675 11.46C84.1608 11.46 83.6008 11.5733 83.1875 11.8C82.7875 12.0133 82.5008 12.3867 82.3275 12.92C82.1542 13.4533 82.0675 14.1933 82.0675 15.14C82.0675 16.0867 82.1542 16.8267 82.3275 17.36C82.5008 17.8933 82.7875 18.2733 83.1875 18.5C83.6008 18.7133 84.1608 18.82 84.8675 18.82C85.5742 18.82 86.1342 18.7133 86.5475 18.5C86.9608 18.2733 87.2542 17.8933 87.4275 17.36C87.6008 16.8267 87.6875 16.0867 87.6875 15.14C87.6875 14.1933 87.6008 13.4533 87.4275 12.92C87.2542 12.3867 86.9608 12.0133 86.5475 11.8C86.1342 11.5733 85.5742 11.46 84.8675 11.46ZM98.0347 10.02C99.7947 10.02 100.675 10.9133 100.675 12.7V20H98.9747V13.18C98.9747 12.5267 98.868 12.08 98.6547 11.84C98.4414 11.5867 98.0814 11.46 97.5747 11.46C96.9747 11.46 96.3747 11.6067 95.7747 11.9C95.1747 12.1933 94.4614 12.5933 93.6347 13.1L93.5547 11.88C94.3147 11.2933 95.068 10.84 95.8147 10.52C96.5614 10.1867 97.3014 10.02 98.0347 10.02ZM93.5547 10.26L93.6947 12.12L93.8147 12.42V20H92.1147V10.26H93.5547ZM107.736 10.02C109.202 10.02 110.262 10.2867 110.916 10.82C111.582 11.3533 111.916 12.1467 111.916 13.2C111.929 14.0667 111.749 14.7467 111.376 15.24C111.002 15.72 110.409 15.96 109.596 15.96H103.916V14.64H109.156C109.596 14.64 109.882 14.4933 110.016 14.2C110.149 13.8933 110.216 13.56 110.216 13.2C110.202 12.5733 110.016 12.1267 109.656 11.86C109.296 11.5933 108.682 11.46 107.816 11.46C107.109 11.46 106.549 11.5667 106.136 11.78C105.736 11.98 105.449 12.34 105.276 12.86C105.116 13.3667 105.036 14.08 105.036 15C105.036 16.04 105.136 16.8333 105.336 17.38C105.549 17.9267 105.882 18.3 106.336 18.5C106.789 18.7 107.389 18.8 108.136 18.8C108.656 18.8 109.222 18.78 109.836 18.74C110.462 18.6867 111.022 18.6267 111.516 18.56L111.696 19.7C111.389 19.82 111.009 19.92 110.556 20C110.116 20.08 109.656 20.14 109.176 20.18C108.709 20.22 108.289 20.24 107.916 20.24C106.796 20.24 105.896 20.0733 105.216 19.74C104.536 19.3933 104.036 18.8467 103.716 18.1C103.409 17.34 103.256 16.34 103.256 15.1C103.256 13.82 103.409 12.8133 103.716 12.08C104.036 11.3333 104.522 10.8067 105.176 10.5C105.842 10.18 106.696 10.02 107.736 10.02Z" fill="white"/>
<g clip-path="url(#clip0_349_41)">
<path d="M19 10.6H14V21H12.3333V16.2H10.6667V21H9V10.6H4V9H19V10.6Z" fill="black"/>
<rect x="10" y="5" width="3" height="3" fill="black"/>
</g>
<defs>
<linearGradient id="paint0_linear_349_41" x1="23" y1="2" x2="-0.173248" y2="23.2162" gradientUnits="userSpaceOnUse">
<stop stop-color="#02AFFF"/>
<stop offset="1" stop-color="#03FFCF"/>
</linearGradient>
<clipPath id="clip0_349_41">
<rect width="18" height="18" fill="white" transform="translate(3 4)"/>
</clipPath>
</defs>
</svg>