<svg width="64" height="64" viewBox="0 0 64 64" fill="none" xmlns="http://www.w3.org/2000/svg">
<path d="M41.12 38.52L43.72 41.16C43.7967 41.2374 43.8881 41.2987 43.9887 41.3402C44.0892 41.3818 44.1969 41.4027 44.3052 41.4018C44.4135 41.4008 44.5202 41.378 44.619 41.3348C44.7178 41.2915 44.8065 41.2287 44.88 41.15C47.0733 38.79 49.2867 36.4167 51.52 34.03C54.9667 30.3567 56.9167 28.15 57.37 27.41C60.64 22.02 60.36 13.84 55.88 9.29C55.7333 9.14334 55.6367 8.96 55.59 8.74C55.5833 8.70667 55.5467 8.60334 55.48 8.43C55.42 8.26334 55.3 8.11334 55.12 7.98C54.4333 7.47334 53.7767 7.04334 53.15 6.69" stroke="#688B84" stroke-width="2"/>
<path d="M53.15 6.69C46.59 1.46 38.15 2.91 32.65 8.89C29.2567 12.5767 25.8233 16.1867 22.35 19.72C22.3134 19.7568 22.2844 19.8003 22.2645 19.8481C22.2447 19.8958 22.2345 19.9468 22.2345 19.998C22.2345 20.0492 22.2447 20.0997 22.2645 20.1464C22.2844 20.1931 22.3134 20.2351 22.35 20.27L41.12 38.52" stroke="#8AA29E" stroke-width="2"/>
<path d="M53.15 6.69C55.0033 9.34334 55.93 12.5433 55.93 16.29C55.92 20.48 54.22 24.95 51.39 27.9C48.03 31.4133 44.6067 34.9533 41.12 38.52" stroke="#DDE9E6" stroke-width="2"/>
<path d="M6.11 49.47C9.26 59.54 18.53 63.68 27.8 59.02C29.42 58.2067 31.46 56.4033 33.92 53.61C35.42 51.9033 37.94 49.1433 41.48 45.33C41.714 45.0782 41.8381 44.7433 41.825 44.3985C41.8118 44.0536 41.6626 43.727 41.41 43.49L38.97 41.19" stroke="#1D6A51" stroke-width="2"/>
<path d="M38.97 41.19L20.24 23.22C20.1418 23.1273 20.0108 23.0774 19.8759 23.0812C19.7409 23.0849 19.6129 23.142 19.52 23.24C16.62 26.3533 13.61 29.4433 10.49 32.51C5.73 37.19 4.27 42.8433 6.11 49.47" stroke="#348B67" stroke-width="2"/>
<path d="M38.97 41.19C35.8833 44.9233 32.6067 48.4733 29.14 51.84C26.7667 54.1467 24.6233 55.5633 22.71 56.09C20.1833 56.79 17.49 56.7367 14.63 55.93C12.82 55.41 10.62 53.75 8.62 52.86C7.99333 52.5867 7.15667 51.4567 6.11 49.47" stroke="#3CB07C" stroke-width="2"/>
<path d="M11.8879 40.6593C11.9472 40.717 12.0308 40.7485 12.134 40.7521C12.2371 40.7557 12.3578 40.7312 12.4891 40.6802C12.6203 40.6291 12.7597 40.5524 12.8991 40.4544C13.0386 40.3564 13.1753 40.2391 13.3017 40.1092C13.5568 39.8468 13.754 39.5489 13.8497 39.281C13.9454 39.0131 13.9319 38.7972 13.8121 38.6807C13.7528 38.623 13.6692 38.5915 13.566 38.5879C13.4629 38.5843 13.3422 38.6088 13.2109 38.6598C13.0797 38.7109 12.9403 38.7876 12.8009 38.8856C12.6614 38.9836 12.5247 39.1009 12.3983 39.2308C12.1432 39.4932 11.946 39.7911 11.8503 40.059C11.7546 40.3269 11.7681 40.5428 11.8879 40.6593Z" stroke="#96E6BB" stroke-width="2"/>
<path d="M12.05 48.76C11.6833 47.2 11.55 45.36 11.65 43.24C11.6567 43.08 11.56 42.9467 11.36 42.84C11.0467 42.66 10.8367 42.7433 10.73 43.09C10.0767 45.1167 10.0733 47.0033 10.72 48.75C10.8067 48.99 11.0133 49.1167 11.34 49.13L11.71 49.15C12.0033 49.1633 12.1167 49.0333 12.05 48.76Z" stroke="#96E6BB" stroke-width="2"/>
<path d="M14.6077 53.1329C14.7455 52.9681 14.7588 52.7107 14.6448 52.4173C14.5308 52.124 14.2987 51.8187 13.9996 51.5686C13.8515 51.4448 13.6914 51.3382 13.5285 51.2551C13.3655 51.1719 13.203 51.1137 13.05 51.0839C12.897 51.054 12.7567 51.0531 12.637 51.0811C12.5173 51.1091 12.4205 51.1655 12.3523 51.2471C12.2145 51.4119 12.2012 51.6693 12.3152 51.9627C12.4292 52.256 12.6613 52.5613 12.9604 52.8114C13.1085 52.9352 13.2686 53.0418 13.4315 53.1249C13.5945 53.2081 13.757 53.2663 13.91 53.2961C14.063 53.326 14.2033 53.3269 14.323 53.2989C14.4427 53.2709 14.5395 53.2145 14.6077 53.1329Z" stroke="#96E6BB" stroke-width="2"/>
<path d="M33.7171 57.8142C32.1423 59.5328 30.2445 60.9243 28.1319 61.9095C26.0193 62.8946 23.7334 63.4539 21.4047 63.5556C19.0759 63.6573 16.75 63.2993 14.5596 62.5021C12.3692 61.7048 10.3573 60.484 8.6387 58.9092L7.636 57.9904C4.1652 54.81 2.09998 50.3811 1.89464 45.678C1.68931 40.9748 3.36069 36.3828 6.5411 32.912L30.9029 6.3258C32.4777 4.60723 34.3755 3.21566 36.4881 2.23055C38.6007 1.24544 40.8866 0.686074 43.2153 0.584394C45.5441 0.482714 47.87 0.840709 50.0604 1.63794C52.2508 2.43517 54.2627 3.65603 55.9813 5.2308L56.984 6.1496C60.4548 9.33001 62.52 13.7589 62.7254 18.462C62.9307 23.1652 61.2593 27.7572 58.0789 31.228L33.7171 57.8142ZM6.11 49.47C9.26 59.54 18.53 63.68 27.8 59.02C29.42 58.2067 31.46 56.4033 33.92 53.61C35.42 51.9033 37.94 49.1433 41.48 45.33C41.714 45.0782 41.8381 44.7433 41.8249 44.3985C41.8118 44.0536 41.6626 43.727 41.41 43.49L38.97 41.19L20.24 23.22C20.1418 23.1273 20.0108 23.0774 19.8759 23.0812C19.7409 23.0849 19.6129 23.142 19.52 23.24C16.62 26.3533 13.61 29.4433 10.49 32.51C5.73 37.19 4.27 42.8433 6.11 49.47Z" fill="#14443C"/>
<path d="M53.15 6.69C55.0033 9.34333 55.93 12.5433 55.93 16.29C55.92 20.48 54.22 24.95 51.39 27.9C48.03 31.4133 44.6067 34.9533 41.12 38.52L22.35 20.27C22.3134 20.2351 22.2844 20.1931 22.2645 20.1464C22.2447 20.0997 22.2345 20.0492 22.2345 19.998C22.2345 19.9468 22.2447 19.8958 22.2645 19.8481C22.2844 19.8003 22.3134 19.7568 22.35 19.72C25.8233 16.1867 29.2567 12.5767 32.65 8.89C38.15 2.91 46.59 1.46 53.15 6.69Z" fill="white"/>
<path d="M41.12 38.52C44.6067 34.9533 48.03 31.4133 51.39 27.9C54.22 24.95 55.92 20.48 55.93 16.29C55.93 12.5433 55.0033 9.34333 53.15 6.69C53.7767 7.04333 54.4333 7.47333 55.12 7.98C55.3 8.11333 55.42 8.26333 55.48 8.43C55.5467 8.60333 55.5833 8.70667 55.59 8.74C55.6367 8.96 55.7333 9.14333 55.88 9.29C60.36 13.84 60.64 22.02 57.37 27.41C56.9167 28.15 54.9667 30.3567 51.52 34.03C49.2867 36.4167 47.0733 38.79 44.88 41.15C44.8065 41.2287 44.7178 41.2915 44.619 41.3348C44.5202 41.378 44.4135 41.4008 44.3052 41.4018C44.1969 41.4027 44.0892 41.3818 43.9887 41.3402C43.8881 41.2987 43.7967 41.2374 43.72 41.16L41.12 38.52Z" fill="#BBD2CC"/>
<path d="M38.97 41.19C35.8833 44.9233 32.6067 48.4733 29.14 51.84C26.7667 54.1467 24.6233 55.5633 22.71 56.09C20.1833 56.79 17.49 56.7367 14.63 55.93C12.82 55.41 10.62 53.75 8.62 52.86C7.99333 52.5867 7.15667 51.4567 6.11 49.47C4.27 42.8433 5.73 37.19 10.49 32.51C13.61 29.4433 16.62 26.3533 19.52 23.24C19.6129 23.142 19.7409 23.0849 19.8759 23.0812C20.0108 23.0774 20.1418 23.1273 20.24 23.22L38.97 41.19ZM11.8879 40.6593C11.9472 40.717 12.0308 40.7485 12.134 40.7521C12.2371 40.7557 12.3578 40.7312 12.4891 40.6802C12.6203 40.6291 12.7597 40.5524 12.8991 40.4544C13.0386 40.3564 13.1753 40.2391 13.3017 40.1092C13.5568 39.8468 13.754 39.5489 13.8497 39.281C13.9454 39.0131 13.9319 38.7972 13.8121 38.6807C13.7528 38.623 13.6692 38.5915 13.566 38.5879C13.4629 38.5843 13.3422 38.6088 13.2109 38.6598C13.0797 38.7109 12.9403 38.7876 12.8009 38.8856C12.6614 38.9836 12.5247 39.1009 12.3983 39.2308C12.1432 39.4932 11.946 39.7911 11.8503 40.059C11.7546 40.3269 11.7681 40.5428 11.8879 40.6593ZM12.05 48.76C11.6833 47.2 11.55 45.36 11.65 43.24C11.6567 43.08 11.56 42.9467 11.36 42.84C11.0467 42.66 10.8367 42.7433 10.73 43.09C10.0767 45.1167 10.0733 47.0033 10.72 48.75C10.8067 48.99 11.0133 49.1167 11.34 49.13L11.71 49.15C12.0033 49.1633 12.1167 49.0333 12.05 48.76ZM14.6077 53.1329C14.7455 52.9681 14.7588 52.7107 14.6448 52.4173C14.5308 52.124 14.2987 51.8187 13.9996 51.5686C13.8515 51.4448 13.6914 51.3382 13.5285 51.2551C13.3655 51.1719 13.203 51.1137 13.05 51.0839C12.897 51.054 12.7567 51.0531 12.637 51.0811C12.5173 51.1091 12.4205 51.1655 12.3523 51.2471C12.2145 51.4119 12.2012 51.6693 12.3152 51.9627C12.4292 52.256 12.6613 52.5613 12.9604 52.8114C13.1085 52.9352 13.2686 53.0418 13.4315 53.1249C13.5945 53.2081 13.757 53.2663 13.91 53.2961C14.063 53.326 14.2033 53.3269 14.323 53.2989C14.4427 53.2709 14.5395 53.2145 14.6077 53.1329Z" fill="#53D192"/>
<path d="M12.3983 39.2308C11.867 39.7772 11.6385 40.4168 11.8879 40.6593C12.1374 40.9019 12.7703 40.6556 13.3017 40.1092C13.833 39.5628 14.0615 38.9232 13.8121 38.6807C13.5626 38.4381 12.9297 38.6844 12.3983 39.2308Z" fill="#D8FBE4"/>
<path d="M6.11 49.47C7.15667 51.4567 7.99333 52.5867 8.62 52.86C10.62 53.75 12.82 55.41 14.63 55.93C17.49 56.7367 20.1833 56.79 22.71 56.09C24.6233 55.5633 26.7667 54.1467 29.14 51.84C32.6067 48.4733 35.8833 44.9233 38.97 41.19L41.41 43.49C41.6626 43.727 41.8118 44.0536 41.825 44.3985C41.8381 44.7433 41.714 45.0782 41.48 45.33C37.94 49.1433 35.42 51.9033 33.92 53.61C31.46 56.4033 29.42 58.2067 27.8 59.02C18.53 63.68 9.26 59.54 6.11 49.47Z" fill="#258F66"/>
<path d="M12.05 48.76C12.1167 49.0333 12.0033 49.1633 11.71 49.15L11.34 49.13C11.0133 49.1167 10.8067 48.99 10.72 48.75C10.0733 47.0033 10.0767 45.1167 10.73 43.09C10.8367 42.7433 11.0467 42.66 11.36 42.84C11.56 42.9467 11.6567 43.08 11.65 43.24C11.55 45.36 11.6833 47.2 12.05 48.76Z" fill="#D8FBE4"/>
<path d="M12.9604 52.8114C13.5833 53.3322 14.3208 53.4761 14.6077 53.1329C14.8947 52.7897 14.6224 52.0894 13.9996 51.5686C13.3767 51.0478 12.6392 50.9039 12.3523 51.2471C12.0653 51.5903 12.3376 52.2906 12.9604 52.8114Z" fill="#D8FBE4"/>
</svg>